{"title":"Ivan Ferreiro - Picnic Extraterrestre By me","uid":5878029,"size":109061227,"categoryP":"audio","categoryS":"music","magnet":"?xt=urn:btih:b4893e0dc057bf180d062d2b350376cd927f513f&amp;dn=Ivan+Ferreiro+-+Picnic+Extraterrestre+By+me&amp;tr=udp%3A%2F%2Ftracker.openbittorrent.com%3A80&amp;tr=udp%3A%2F%2Fopen.demonii.com%3A1337&amp;tr=udp%3A%2F%2Ftracker.coppersurfer.tk%3A6969&amp;tr=udp%3A%2F%2Fexodus.desync.com%3A6969","seeders":0,"leechers":2,"uploader":null,"files":1,"time":1286727082,"description":"Disco ivan ferreiro - Picnic Extraterrestre 320 kb/s\n\n\n\nGeneral\nFormat                           : MPEG Audio\nFile size                        : 10.9 MiB\nDuration                         : 4mn 46s\nOverall bit rate                 : 320 Kbps\nAlbum                            : Picnic Extraterrestre\nTrack name                       : Cancion de Amor\nTrack name/Position              : 01\nTrack name/Total                 : 12\nGenre                            : Pop Latino\nRecorded date                    : 2010\nWriting library                  : LAME3.93\nCover                            : Yes\nCover description                : 12716743554bcc35f3a4aef-g.jpg\nCover type                       : Cover (front)\nCover MIME                       : image/jpeg\nLyrics                           : Converted from Lyrics3 v2.00:  \n\nAudio\nFormat                           : MPEG Audio\nFormat version                   : Version 1\nFormat profile                   : Layer 3\nDuration                         : 4mn 46s\nBit rate mode                    : Constant\nBit rate                         : 320 Kbps\nChannel(s)                       : 2 channels\nSampling rate                    : 44.1 KHz\nStream size                      : 10.9 MiB (100%)\nWriting library                  : LAME3.93\n\nGeneral\nFormat                           : MPEG Audio\nFile size                        : 9.02 MiB\nDuration                         : 3mn 56s\nOverall bit rate                 : 320 Kbps\nAlbum                            : Picnic Extraterrestre\nTrack name                       : Cabaret\nTrack name/Position              : 02\nTrack name/Total                 : 12\nGenre                            : Pop Latino\nRecorded date                    : 2010\nWriting library                  : LAME3.93\nCover                            : Yes\nCover description                : 12716743554bcc35f3a4aef-g.jpg\nCover type                       : Cover (front)\nCover MIME                       : image/jpeg\nLyrics                           : Converted from Lyrics3 v2.00:  \n\nAudio\nFormat                           : MPEG Audio\nFormat version                   : Version 1\nFormat profile                   : Layer 3\nDuration                         : 3mn 56s\nBit rate mode                    : Constant\nBit rate                         : 320 Kbps\nChannel(s)                       : 2 channels\nSampling rate                    : 44.1 KHz\nStream size                      : 9.02 MiB (100%)\nWriting library                  : LAME3.93\n\nGeneral\nFormat                           : MPEG Audio\nFile size                        : 9.16 MiB\nDuration                         : 4mn 0s\nOverall bit rate                 : 320 Kbps\nAlbum                            : Picnic Extraterrestre\nTrack name                       : Fahrenheit 451\nTrack name/Position              : 03\nTrack name/Total                 : 12\nGenre                            : Pop Latino\nRecorded date                    : 2010\nWriting library                  : LAME3.93\nCover                            : Yes\nCover description                : 12716743554bcc35f3a4aef-g.jpg\nCover type                       : Cover (front)\nCover MIME                       : image/jpeg\nLyrics                           : Converted from Lyrics3 v2.00:  \n\nAudio\nFormat                           : MPEG Audio\nFormat version                   : Version 1\nFormat profile                   : Layer 3\nDuration                         : 4mn 0s\nBit rate mode                    : Constant\nBit rate                         : 320 Kbps\nChannel(s)                       : 2 channels\nSampling rate                    : 44.1 KHz\nStream size                      : 9.16 MiB (100%)\nWriting library                  : LAME3.93\n\nGeneral\nFormat                           : MPEG Audio\nFile size                        : 6.62 MiB\nDuration                         : 2mn 53s\nOverall bit rate                 : 320 Kbps\nAlbum                            : Picnic Extraterrestre\nTrack name                       : Perdidos\nTrack name/Position              : 04\nTrack name/Total                 : 12\nGenre                            : Pop Latino\nRecorded date                    : 2010\nWriting library                  : LAME3.93\nCover                            : Yes\nCover description                : 12716743554bcc35f3a4aef-g.jpg\nCover type                       : Cover (front)\nCover MIME                       : image/jpeg\nLyrics                           : Converted from Lyrics3 v2.00:  \n\nAudio\nFormat                           : MPEG Audio\nFormat version                   : Version 1\nFormat profile                   : Layer 3\nDuration                         : 2mn 53s\nBit rate mode                    : Constant\nBit rate                         : 320 Kbps\nChannel(s)                       : 2 channels\nSampling rate                    : 44.1 KHz\nStream size                      : 6.62 MiB (100%)\nWriting library                  : LAME3.93\n\nGeneral\nFormat                           : MPEG Audio\nFile size                        : 9.22 MiB\nDuration                         : 4mn 1s\nOverall bit rate                 : 320 Kbps\nAlbum                            : Picnic Extraterrestre\nTrack name                       : Paraisos Perdidos\nTrack name/Position              : 05\nTrack name/Total                 : 12\nGenre                            : Pop Latino\nRecorded date                    : 2010\nWriting library                  : LAME3.93\nCover                            : Yes\nCover description                : 12716743554bcc35f3a4aef-g.jpg\nCover type                       : Cover (front)\nCover MIME                       : image/jpeg\nLyrics                           : Converted from Lyrics3 v2.00:  \n\nAudio\nFormat                           : MPEG Audio\nFormat version                   : Version 1\nFormat profile                   : Layer 3\nDuration                         : 4mn 1s\nBit rate mode                    : Constant\nBit rate                         : 320 Kbps\nChannel(s)                       : 2 channels\nSampling rate                    : 44.1 KHz\nStream size                      : 9.21 MiB (100%)\nWriting library                  : LAME3.93\n\nGeneral\nFormat                           : MPEG Audio\nFile size                        : 8.02 MiB\nDuration                         : 3mn 30s\nOverall bit rate                 : 320 Kbps\nAlbum                            : Picnic Extraterrestre\nTrack name                       : La Jetee\nTrack name/Position              : 06\nTrack name/Total                 : 12\nGenre                            : Pop Latino\nRecorded date                    : 2010\nWriting library                  : LAME3.93\nCover                            : Yes\nCover description                : 12716743554bcc35f3a4aef-g.jpg\nCover type                       : Cover (front)\nCover MIME                       : image/jpeg\nLyrics                           : Converted from Lyrics3 v2.00:  \n\nAudio\nFormat                           : MPEG Audio\nFormat version                   : Version 1\nFormat profile                   : Layer 3\nDuration                         : 3mn 30s\nBit rate mode                    : Constant\nBit rate                         : 320 Kbps\nChannel(s)                       : 2 channels\nSampling rate                    : 44.1 KHz\nStream size                      : 8.01 MiB (100%)\nWriting library                  : LAME3.93\n\nGeneral\nFormat                           : MPEG Audio\nFile size                        : 8.99 MiB\nDuration                         : 3mn 55s\nOverall bit rate                 : 320 Kbps\nAlbum                            : Picnic Extraterrestre\nTrack name                       : Cancion Juridica\nTrack name/Position              : 07\nTrack name/Total                 : 12\nGenre                            : Pop Latino\nRecorded date                    : 2010\nWriting library                  : LAME3.93\nCover                            : Yes\nCover description                : 12716743554bcc35f3a4aef-g.jpg\nCover type                       : Cover (front)\nCover MIME                       : image/jpeg\nLyrics                           : Converted from Lyrics3 v2.00:  \nComment                          :\nURL                              :\n\nAudio\nFormat                           : MPEG Audio\nFormat version                   : Version 1\nFormat profile                   : Layer 3\nDuration                         : 3mn 55s\nBit rate mode                    : Constant\nBit rate                         : 320 Kbps\nChannel(s)                       : 2 channels\nSampling rate                    : 44.1 KHz\nStream size                      : 8.98 MiB (100%)\nWriting library                  : LAME3.93\n\nGeneral\nFormat                           : MPEG Audio\nFile size                        : 8.76 MiB\nDuration                         : 3mn 49s\nOverall bit rate                 : 320 Kbps\nAlbum                            : Picnic Extraterrestre\nTrack name                       : Puro Nervio\nTrack name/Position              : 08\nTrack name/Total                 : 12\nGenre                            : Pop Latino\nRecorded date                    : 2010\nWriting library                  : LAME3.93\nCover                            : Yes\nCover description                : 12716743554bcc35f3a4aef-g.jpg\nCover type                       : Cover (front)\nCover MIME                       : image/jpeg\nLyrics                           : Converted from Lyrics3 v2.00:  \n\nAudio\nFormat                           : MPEG Audio\nFormat version                   : Version 1\nFormat profile                   : Layer 3\nDuration                         : 3mn 49s\nBit rate mode                    : Constant\nBit rate                         : 320 Kbps\nChannel(s)                       : 2 channels\nSampling rate                    : 44.1 KHz\nStream size                      : 8.76 MiB (100%)\nWriting library                  : LAME3.93\n\nGeneral\nFormat                           : MPEG Audio\nFile size                        : 8.42 MiB\nDuration                         : 3mn 40s\nOverall bit rate                 : 320 Kbps\nAlbum                            : Picnic Extraterrestre\nTrack name                       : Cancion de Navidad\nTrack name/Position              : 09\nTrack name/Total                 : 12\nGenre                            : Pop Latino\nRecorded date                    : 2010\nWriting library                  : LAME3.93\nCover                            : Yes\nCover description                : 12716743554bcc35f3a4aef-g.jpg\nCover type                       : Cover (front)\nCover MIME                       : image/jpeg\nLyrics                           : Converted from Lyrics3 v2.00:  \n\nAudio\nFormat                           : MPEG Audio\nFormat version                   : Version 1\nFormat profile                   : Layer 3\nDuration                         : 3mn 40s\nBit rate mode                    : Constant\nBit rate                         : 320 Kbps\nChannel(s)                       : 2 channels\nSampling rate                    : 44.1 KHz\nStream size                      : 8.42 MiB (100%)\nWriting library                  : LAME3.93\n\nGeneral\nFormat                           : MPEG Audio\nFile size                        : 11.1 MiB\nDuration                         : 4mn 51s\nOverall bit rate                 : 320 Kbps\nAlbum                            : Picnic Extraterrestre\nTrack name                       : Relamida\nTrack name/Position              : 10\nTrack name/Total                 : 12\nGenre                            : Pop Latino\nRecorded date                    : 2010\nWriting library                  : LAME3.93\nCover                            : Yes\nCover description                : 12716743554bcc35f3a4aef-g.jpg\nCover type                       : Cover (front)\nCover MIME                       : image/jpeg\nLyrics                           : Converted from Lyrics3 v2.00:  \n\nAudio\nFormat                           : MPEG Audio\nFormat version                   : Version 1\nFormat profile                   : Layer 3\nDuration                         : 4mn 51s\nBit rate mode                    : Constant\nBit rate                         : 320 Kbps\nChannel(s)                       : 2 channels\nSampling rate                    : 44.1 KHz\nStream size                      : 11.1 MiB (100%)\nWriting library                  : LAME3.93\n\nGeneral\nFormat                           : MPEG Audio\nFile size                        : 6.03 MiB\nDuration                         : 2mn 37s\nOverall bit rate                 : 320 Kbps\nAlbum                            : Picnic Extraterrestre\nTrack name                       : Luna de Miel\nTrack name/Position              : 11\nTrack name/Total                 : 12\nGenre                            : Pop Latino\nRecorded date                    : 2010\nWriting library                  : LAME3.93\nCover                            : Yes\nCover description                : 12716743554bcc35f3a4aef-g.jpg\nCover type                       : Cover (front)\nCover MIME                       : image/jpeg\nLyrics                           : Converted from Lyrics3 v2.00:  \n\nAudio\nFormat                           : MPEG Audio\nFormat version                   : Version 1\nFormat profile                   : Layer 3\nDuration                         : 2mn 37s\nBit rate mode                    : Constant\nBit rate                         : 320 Kbps\nChannel(s)                       : 2 channels\nSampling rate                    : 44.1 KHz\nStream size                      : 6.02 MiB (100%)\nWriting library                  : LAME3.93\n\nGeneral\nFormat                           : MPEG Audio\nFile size                        : 11.1 MiB\nDuration                         : 4mn 50s\nOverall bit rate                 : 320 Kbps\nAlbum                            : Picnic Extraterrestre\nTrack name                       : Picnic al Borde del Camino\nTrack name/Position              : 12\nTrack name/Total                 : 12\nGenre                            : Pop Latino\nRecorded date                    : 2010\nWriting library                  : LAME3.93\nCover                            : Yes\nCover description                : 12716743554bcc35f3a4aef-g.jpg\nCover type                       : Cover (front)\nCover MIME                       : image/jpeg\nLyrics                           : Converted from Lyrics3 v2.00:  \n\nAudio\nFormat                           : MPEG Audio\nFormat version                   : Version 1\nFormat profile                   : Layer 3\nDuration                         : 4mn 50s\nBit rate mode                    : Constant\nBit rate                         : 320 Kbps\nChannel(s)                       : 2 channels\nSampling rate                    : 44.1 KHz\nStream size                      : 11.1 MiB (100%)\nWriting library                  : LAME3.93\n","torrent":{"xt":"urn:btih:b4893e0dc057bf180d062d2b350376cd927f513f","amp;dn":"Ivan+Ferreiro+-+Picnic+Extraterrestre+By+me","amp;tr":["udp%3A%2F%2Ftracker.openbittorrent.com%3A80","udp%3A%2F%2Fopen.demonii.com%3A1337","udp%3A%2F%2Ftracker.coppersurfer.tk%3A6969","udp%3A%2F%2Fexodus.desync.com%3A6969"],"infoHash":"b4893e0dc057bf180d062d2b350376cd927f513f","infoHashBuffer":{"type":"Buffer","data":[180,137,62,13,192,87,191,24,13,6,45,43,53,3,118,205,146,127,81,63]},"announce":[],"urlList":[]}}